<svg width="800" height="384" viewBox="0 0 800 384" fill="none" xmlns="http://www.w3.org/2000/svg">
<rect width="800" height="384" fill="white"/>
<rect width="800" height="384" fill="#C0D8F2"/>
<rect x="32" y="32" width="736" height="320" rx="16" fill="white"/>
<rect x="256" y="80" width="288" height="48" rx="24" fill="#00448D"/>
<path d="M333.049 104.376H340.225V95.832H329.785V98.352H336.985V101.88H329.809V110.976H331.801C335.809 110.976 339.049 110.832 342.649 110.208L342.313 107.64C339.193 108.168 336.409 108.336 333.049 108.36V104.376ZM343.849 93.936V116.112H347.017V93.936H343.849ZM364.823 100.896H366.551V105.312H369.551V93.984H366.551V98.4H364.823V94.392H361.871V105.144H364.823V100.896ZM357.311 102.12H354.455V99.792H357.311V102.12ZM360.239 95.064H357.311V97.464H354.455V95.064H351.479V104.544H360.239V95.064ZM357.743 113.448V112.08H369.551V106.128H354.527V108.552H366.383V109.8H354.575V115.896H370.151V113.448H357.743ZM388.101 110.232H391.269V93.96H388.101V99.264H384.669V101.928H388.101V110.232ZM385.077 104.328C382.437 104.736 380.157 104.832 376.773 104.856V102.504H383.565V95.424H373.605V97.944H380.445V100.128H373.629V107.4H375.453C379.629 107.4 382.317 107.328 385.317 106.848L385.077 104.328ZM379.749 113.16V108.936H376.581V115.68H391.821V113.16H379.749ZM413.228 93.96H410.036V107.016H413.228V93.96ZM408.404 103.488C404.828 102.408 403.268 99.768 403.268 97.032V94.92H400.052V97.032C400.052 99.888 398.468 102.84 394.772 104.04L396.356 106.536C398.948 105.672 400.724 103.92 401.708 101.712C402.716 103.68 404.396 105.216 406.892 105.984L408.404 103.488ZM405.788 113.544C402.908 113.544 401.372 112.968 401.372 111.696C401.372 110.448 402.908 109.848 405.788 109.848C408.668 109.848 410.204 110.448 410.204 111.696C410.204 112.968 408.668 113.544 405.788 113.544ZM405.788 107.4C401.132 107.4 398.228 108.984 398.228 111.696C398.228 114.432 401.132 116.016 405.788 116.016C410.444 116.016 413.348 114.432 413.348 111.696C413.348 108.984 410.444 107.4 405.788 107.4ZM432.09 93.936V116.112H435.258V93.936H432.09ZM423.378 95.496C420.042 95.496 417.57 98.52 417.57 103.368C417.57 108.24 420.042 111.288 423.378 111.288C426.714 111.288 429.186 108.24 429.186 103.368C429.186 98.52 426.714 95.496 423.378 95.496ZM423.378 98.352C425.01 98.352 426.138 100.104 426.138 103.368C426.138 106.656 425.01 108.408 423.378 108.408C421.746 108.408 420.618 106.656 420.618 103.368C420.618 100.104 421.746 98.352 423.378 98.352ZM451.744 103.896C448.984 104.4 446.56 104.544 442.96 104.568V102.288H449.872V95.28H439.792V97.824H446.752V99.912H439.816V107.112H441.712C446.128 107.112 448.936 106.992 452.008 106.416L451.744 103.896ZM445.432 108.96H442.264V115.68H457.24V113.16H445.432V108.96ZM456.424 100.32V93.96H453.256V110.256H456.424V102.912H459.352V100.32H456.424ZM464.318 107.952H467.39C467.03 104.568 471.206 103.416 471.206 100.008C471.206 96.936 469.094 95.448 466.214 95.448C464.126 95.448 462.422 96.432 461.174 97.848L463.118 99.624C463.886 98.832 464.726 98.28 465.782 98.28C467.03 98.28 467.822 99.048 467.822 100.248C467.822 102.528 463.742 104.088 464.318 107.952ZM465.854 114.336C467.126 114.336 468.062 113.328 468.062 112.032C468.062 110.712 467.126 109.728 465.854 109.728C464.606 109.728 463.67 110.712 463.67 112.032C463.67 113.328 464.606 114.336 465.854 114.336Z" fill="white"/>
<path d="M91.5936 168.296H96.8896V163.16H90.2336V164.232H95.5616V167.224H90.2816V172.728H91.4656C93.9296 172.728 96.1056 172.632 98.6976 172.2L98.5696 171.128C96.0576 171.528 93.9456 171.64 91.5936 171.64V168.296ZM99.9136 161.816V176.2H101.226V161.816H99.9136ZM113.192 166.12H115.016V169.32H116.28V161.848H115.016V165.048H113.192V162.136H111.944V169.192H113.192V166.12ZM109.144 167.608H106.056V165.496H109.144V167.608ZM110.376 162.6H109.144V164.488H106.056V162.6H104.808V168.632H110.376V162.6ZM108.136 174.984V173.4H116.28V169.976H106.808V171H114.968V172.424H106.84V176.024H116.792V174.984H108.136ZM129.383 172.36H130.711V161.848H129.383V165.576H126.711V166.696H129.383V172.36ZM126.967 168.936C125.063 169.256 123.447 169.336 120.775 169.336V167.032H125.815V162.84H119.447V163.896H124.503V166.024H119.479V170.408H120.567C123.399 170.408 125.079 170.344 127.095 170.008L126.967 168.936ZM122.759 174.792V171.576H121.447V175.864H131.143V174.792H122.759ZM145.382 161.848H144.07V170.408H145.382V161.848ZM142.278 168.488C140.15 167.768 138.662 165.928 138.662 163.88V162.472H137.35V163.88C137.35 166.04 135.894 168.056 133.734 168.856L134.406 169.896C136.102 169.256 137.414 167.88 138.022 166.168C138.678 167.72 139.974 168.936 141.622 169.528L142.278 168.488ZM140.646 175.112C138.454 175.112 137.126 174.488 137.126 173.448C137.126 172.392 138.454 171.768 140.646 171.768C142.822 171.768 144.134 172.392 144.134 173.448C144.134 174.488 142.822 175.112 140.646 175.112ZM140.646 170.744C137.654 170.744 135.83 171.72 135.83 173.448C135.83 175.16 137.654 176.152 140.646 176.152C143.606 176.152 145.446 175.16 145.446 173.448C145.446 171.72 143.606 170.744 140.646 170.744ZM158.757 161.832V176.216H160.069V161.832H158.757ZM152.501 162.936C150.373 162.936 148.853 164.888 148.853 167.944C148.853 171 150.373 172.952 152.501 172.952C154.629 172.952 156.149 171 156.149 167.944C156.149 164.888 154.629 162.936 152.501 162.936ZM152.501 164.12C153.893 164.12 154.885 165.624 154.885 167.944C154.885 170.28 153.893 171.784 152.501 171.784C151.093 171.784 150.101 170.28 150.101 167.944C150.101 165.624 151.093 164.12 152.501 164.12ZM171.491 168.632C169.315 169.016 167.491 169.112 164.963 169.112V166.872H170.099V162.776H163.635V163.832H168.803V165.864H163.667V170.184H164.803C167.459 170.184 169.347 170.104 171.619 169.72L171.491 168.632ZM166.659 171.592H165.347V175.864H174.835V174.792H166.659V171.592ZM174.179 166.248V161.832H172.867V172.408H174.179V167.336H176.307V166.248H174.179ZM567.798 171.896C566.502 171.896 565.558 170.968 565.558 169.688C565.558 168.392 566.502 167.464 567.798 167.464C569.11 167.464 570.054 168.392 570.054 169.688C570.054 170.968 569.11 171.896 567.798 171.896ZM567.798 166.376C565.782 166.376 564.326 167.752 564.326 169.688C564.326 171.64 565.782 172.984 567.798 172.984C569.846 172.984 571.302 171.64 571.302 169.688C571.302 167.752 569.846 166.376 567.798 166.376ZM568.438 162.008H567.126V164.136H563.51V165.192H571.974V164.136H568.438V162.008ZM576.998 167.736H574.646V161.848H573.334V176.184H574.646V168.84H576.998V167.736ZM589.813 166.152H581.365V162.36H580.053V167.224H589.813V166.152ZM581.269 171.64H579.957V175.832H589.893V174.76H581.269V171.64ZM578.293 169.144V170.2H591.301V169.144H578.293ZM607.102 171.544H608.43V161.848H607.102V165.88H604.014V166.952H607.102V171.544ZM597.534 162.968V164.04H602.558C602.302 166.568 600.238 168.52 596.846 169.592L597.422 170.632C601.518 169.304 603.966 166.664 603.966 162.968H597.534ZM604.446 170.296H603.134V170.952C603.134 173.048 600.894 174.648 598.334 175.096L598.862 176.136C601.006 175.72 602.942 174.584 603.79 172.904C604.638 174.552 606.558 175.688 608.67 176.104L609.198 175.08C606.67 174.6 604.446 173.016 604.446 170.952V170.296ZM617.805 163.064C620.157 163.064 621.501 163.608 621.501 164.568C621.501 165.528 620.157 166.072 617.805 166.072C615.453 166.072 614.109 165.528 614.109 164.568C614.109 163.608 615.453 163.064 617.805 163.064ZM617.805 167.048C620.957 167.048 622.845 166.184 622.845 164.568C622.845 162.952 620.957 162.072 617.805 162.072C614.653 162.072 612.765 162.952 612.765 164.568C612.765 166.184 614.653 167.048 617.805 167.048ZM614.205 173.544H622.637V170.312H612.877V171.304H621.341V172.584H612.925V176.024H623.069V175H614.205V173.544ZM611.309 168.024V169.08H624.301V168.024H611.309ZM634.277 162.888C632.053 162.888 630.437 164.248 630.437 166.264C630.437 168.264 632.053 169.64 634.277 169.64C636.517 169.64 638.117 168.264 638.117 166.264C638.117 164.248 636.517 162.888 634.277 162.888ZM634.277 164.008C635.765 164.008 636.837 164.92 636.837 166.264C636.837 167.592 635.765 168.52 634.277 168.52C632.789 168.52 631.717 167.592 631.717 166.264C631.717 164.92 632.789 164.008 634.277 164.008ZM640.005 161.832V176.216H641.317V161.832H640.005ZM629.877 173.064C632.469 173.064 635.941 173.048 639.173 172.44L639.061 171.464C635.925 171.944 632.325 171.96 629.717 171.96L629.877 173.064ZM645.172 163.24V172.568H651.764V163.24H645.172ZM650.484 164.296V171.528H646.452V164.296H650.484ZM654.772 161.832V176.216H656.084V161.832H654.772ZM667.571 163.304H663.987V161.688H662.675V163.304H659.107V164.36H667.571V163.304ZM661.155 167.544C661.155 166.616 662.019 166.024 663.331 166.024C664.643 166.024 665.523 166.616 665.523 167.544C665.523 168.488 664.643 169.064 663.331 169.064C662.019 169.064 661.155 168.488 661.155 167.544ZM666.771 167.544C666.771 166.024 665.379 165.048 663.331 165.048C661.283 165.048 659.907 166.024 659.907 167.544C659.907 169.08 661.283 170.056 663.331 170.056C665.379 170.056 666.771 169.08 666.771 167.544ZM668.899 174.936H662.467V173.352H668.899V174.936ZM668.899 172.328H662.467V170.808H661.171V175.992H670.195V170.808H668.899V172.328ZM672.323 165.48H670.195V161.832H668.883V170.168H670.195V166.584H672.323V165.48ZM675.986 163.224H674.674V172.472H675.858C678.146 172.472 680.402 172.312 682.898 171.8L682.754 170.68C680.37 171.16 678.146 171.352 675.986 171.352V163.224ZM684.226 161.832V176.168H685.538V161.832H684.226ZM690.416 164.296H695.776V163.208H689.104V172.632H690.24C692.944 172.632 694.832 172.536 697.024 172.12L696.88 171.032C694.8 171.4 692.96 171.512 690.416 171.512V164.296ZM701.904 167.496H699.536V161.832H698.224V176.216H699.536V168.584H701.904V167.496ZM704.591 175.208C705.167 175.208 705.647 174.76 705.647 174.104C705.647 173.448 705.167 172.968 704.591 172.968C704.015 172.968 703.535 173.448 703.535 174.104C703.535 174.76 704.015 175.208 704.591 175.208ZM89.6496 207H91.1376V196.52H94.6896V195.272H86.0976V196.52H89.6496V207ZM95.8236 207H97.2796V200.696C98.0796 199.8 98.8156 199.368 99.4716 199.368C100.576 199.368 101.088 200.056 101.088 201.688V207H102.544V200.696C103.36 199.8 104.064 199.368 104.736 199.368C105.84 199.368 106.352 200.056 106.352 201.688V207H107.808V201.496C107.808 199.272 106.96 198.088 105.168 198.088C104.112 198.088 103.2 198.776 102.304 199.752C101.952 198.728 101.232 198.088 99.9036 198.088C98.8636 198.088 97.9516 198.744 97.1996 199.576H97.1516L97.0236 198.312H95.8236V207ZM112.636 207.208C113.708 207.208 114.684 206.648 115.516 205.96H115.564L115.692 207H116.892V201.656C116.892 199.512 115.996 198.088 113.884 198.088C112.492 198.088 111.26 198.712 110.46 199.224L111.036 200.232C111.724 199.768 112.636 199.304 113.644 199.304C115.068 199.304 115.436 200.376 115.436 201.496C111.74 201.912 110.092 202.856 110.092 204.744C110.092 206.312 111.18 207.208 112.636 207.208ZM113.052 206.04C112.188 206.04 111.516 205.64 111.516 204.648C111.516 203.528 112.508 202.808 115.436 202.456V204.888C114.588 205.64 113.9 206.04 113.052 206.04ZM118.435 207H119.971L121.139 204.968C121.443 204.44 121.731 203.912 122.035 203.416H122.115C122.435 203.912 122.755 204.44 123.043 204.968L124.323 207H125.923L123.059 202.616L125.699 198.312H124.179L123.107 200.232C122.851 200.712 122.595 201.192 122.323 201.672H122.259C121.971 201.192 121.667 200.712 121.395 200.232L120.227 198.312H118.659L121.299 202.472L118.435 207ZM131.668 194.888C129.444 194.888 127.828 196.248 127.828 198.264C127.828 200.264 129.444 201.64 131.668 201.64C133.908 201.64 135.508 200.264 135.508 198.264C135.508 196.248 133.908 194.888 131.668 194.888ZM131.668 196.008C133.156 196.008 134.228 196.92 134.228 198.264C134.228 199.592 133.156 200.52 131.668 200.52C130.18 200.52 129.108 199.592 129.108 198.264C129.108 196.92 130.18 196.008 131.668 196.008ZM137.396 193.832V208.216H138.708V193.832H137.396ZM127.268 205.064C129.86 205.064 133.332 205.048 136.564 204.44L136.452 203.464C133.316 203.944 129.716 203.96 127.108 203.96L127.268 205.064ZM151.047 196.392H154.231V195.304H146.471V196.392H149.751V198.216C149.751 200.648 148.023 203.368 145.975 204.392L146.743 205.432C148.359 204.6 149.751 202.776 150.407 200.68C151.063 202.6 152.407 204.28 154.007 205.08L154.759 204.024C152.679 203.048 151.047 200.504 151.047 198.216V196.392ZM159.623 199.624H157.255V193.848H155.943V208.184H157.255V200.728H159.623V199.624ZM169.302 201.048C167.19 200.296 165.766 198.472 165.766 196.504V194.696H164.454V196.472C164.454 198.696 163.062 200.616 160.87 201.4L161.558 202.44C163.27 201.8 164.55 200.488 165.142 198.792C165.782 200.296 167.03 201.496 168.646 202.088L169.302 201.048ZM164.486 203.416H163.174V207.864H172.694V206.792H164.486V203.416ZM172.07 198.232V193.816H170.758V204.424H172.07V199.32H174.198V198.232H172.07ZM180.421 203.528H177.413V199.736H180.421V203.528ZM180.421 198.696H177.413V195.192H176.165V204.584H181.653V195.192H180.421V198.696ZM186.597 193.832V199.512H184.661V194.152H183.429V207.48H184.661V200.584H186.597V208.184H187.845V193.832H186.597ZM200.355 198.984H193.379V197.128H200.355V198.984ZM201.651 194.296H200.355V196.12H193.379V194.296H192.083V200.024H201.651V194.296ZM193.299 203.96H192.003V207.864H201.923V206.792H193.299V203.96ZM190.339 201.416V202.472H196.307V205.256H197.619V202.472H203.379V201.416H190.339ZM217.191 197.8V198.872H220.071V204.36H221.399V193.848H220.071V197.8H217.191ZM218.039 201.176C215.959 200.44 214.551 198.648 214.551 196.776V196.072H217.703V195H210.039V196.072H213.239V196.792C213.239 198.824 211.751 200.728 209.623 201.496L210.311 202.52C211.991 201.912 213.303 200.584 213.927 198.952C214.551 200.424 215.783 201.624 217.383 202.2L218.039 201.176ZM213.543 206.792V203.432H212.215V207.864H221.799V206.792H213.543ZM232.741 200.248C230.565 200.632 228.725 200.728 226.213 200.728V198.664H231.349V194.68H224.885V195.752H230.053V197.656H224.917V201.8H226.053C228.709 201.8 230.597 201.704 232.869 201.32L232.741 200.248ZM226.101 204.376H234.117V208.168H235.429V203.32H226.101V204.376ZM237.557 197.208V196.12H235.429V193.848H234.117V202.568H235.429V200.216H237.557V199.128H235.429V197.208H237.557ZM245.492 195.384C247.748 195.384 249.188 196.056 249.188 197.192C249.188 198.328 247.748 198.984 245.492 198.984C243.236 198.984 241.796 198.328 241.796 197.192C241.796 196.056 243.236 195.384 245.492 195.384ZM245.492 200.04C248.564 200.04 250.532 198.984 250.532 197.192C250.532 195.4 248.564 194.328 245.492 194.328C242.42 194.328 240.452 195.4 240.452 197.192C240.452 198.984 242.42 200.04 245.492 200.04ZM241.988 203.704H240.676V207.864H250.548V206.792H241.988V203.704ZM238.996 201.384V202.44H251.972V201.384H238.996ZM269.671 199.032H261.223V197.592H269.207V196.6H261.223V195.24H269.591V194.216H259.911V200.056H269.671V199.032ZM259.655 204.904H268.199V208.2H269.511V203.864H259.655V204.904ZM258.199 201.416V202.472H271.191V201.416H258.199ZM280.598 197.56V198.632H283.43V202.392H284.758V193.848H283.43V197.56H280.598ZM281.398 200.824C279.318 200.088 277.91 198.28 277.91 196.44V195.944H281.062V194.888H273.398V195.944H276.598V196.44C276.598 198.504 275.126 200.44 272.982 201.224L273.67 202.264C275.35 201.624 276.678 200.28 277.286 198.616C277.91 200.088 279.142 201.272 280.742 201.848L281.398 200.824ZM280.022 207.16C277.862 207.16 276.55 206.552 276.55 205.512C276.55 204.472 277.862 203.848 280.022 203.848C282.182 203.848 283.494 204.472 283.494 205.512C283.494 206.552 282.182 207.16 280.022 207.16ZM280.022 202.84C277.078 202.84 275.238 203.816 275.238 205.512C275.238 207.208 277.078 208.184 280.022 208.184C282.966 208.184 284.79 207.208 284.79 205.512C284.79 203.816 282.966 202.84 280.022 202.84ZM293.417 200.808C295.641 200.424 297.753 199.224 298.633 197.528C299.497 199.224 301.625 200.424 303.849 200.808L304.361 199.768C301.833 199.4 299.353 197.752 299.353 195.864V195.784H303.849V194.728H293.369V195.784H297.897V195.864C297.897 197.752 295.417 199.4 292.921 199.768L293.417 200.808ZM305.113 202.008H292.153V203.08H297.945V208.184H299.257V203.08H305.129L305.113 202.008ZM307.704 195.384V196.44H313.096C312.824 199.848 310.904 202.6 307.048 204.44L307.752 205.512C312.52 203.176 314.424 199.528 314.424 195.384H307.704ZM317.32 193.832V208.184H318.632V193.832H317.32ZM324.823 203.816C323.671 203.816 322.951 202.36 322.951 200.008C322.951 197.704 323.671 196.248 324.823 196.248C325.943 196.248 326.679 197.704 326.679 200.008C326.679 202.36 325.943 203.816 324.823 203.816ZM329.671 199.416H327.863C327.703 196.712 326.551 195.032 324.823 195.032C322.951 195.032 321.751 196.952 321.751 200.008C321.751 203.112 322.951 205.032 324.823 205.032C326.583 205.032 327.751 203.304 327.863 200.488H329.671V207.48H330.919V194.152H329.671V199.416ZM332.519 193.832V208.184H333.767V193.832H332.519ZM342.506 196.408H344.826V195.336H341.21V204.424H341.85C342.714 204.424 343.77 204.408 345.114 204.12L344.97 203.032C344.042 203.224 343.21 203.304 342.506 203.32V196.408ZM346.922 196.408H349.434V195.336H345.626V204.424H346.33C347.802 204.424 348.794 204.392 350.01 204.088L349.866 203C348.906 203.24 348.026 203.32 346.922 203.336V196.408ZM354.122 199.464H352.042V193.816H350.73V208.184H352.042V200.568H354.122V199.464ZM357.368 200.312H362.536V195.16H356.04V196.232H361.24V199.24H356.088V204.728H357.224C359.96 204.728 361.88 204.616 364.12 204.216L363.976 203.128C361.832 203.544 359.976 203.64 357.368 203.64V200.312ZM368.904 199.528H366.552V193.816H365.24V208.2H366.552V200.632H368.904V199.528ZM379.532 196.392H382.716V195.304H374.956V196.392H378.236V198.216C378.236 200.648 376.508 203.368 374.46 204.392L375.228 205.432C376.844 204.6 378.236 202.776 378.892 200.68C379.548 202.6 380.892 204.28 382.492 205.08L383.244 204.024C381.164 203.048 379.532 200.504 379.532 198.216V196.392ZM388.108 199.624H385.74V193.848H384.428V208.184H385.74V200.728H388.108V199.624ZM397.786 201.048C395.674 200.296 394.25 198.472 394.25 196.504V194.696H392.938V196.472C392.938 198.696 391.546 200.616 389.354 201.4L390.042 202.44C391.754 201.8 393.034 200.488 393.626 198.792C394.266 200.296 395.514 201.496 397.13 202.088L397.786 201.048ZM392.97 203.416H391.658V207.864H401.178V206.792H392.97V203.416ZM400.554 198.232V193.816H399.242V204.424H400.554V199.32H402.682V198.232H400.554ZM419.053 193.832V208.2H420.365V193.832H419.053ZM409.437 195.048V204.728H416.189V195.048H414.893V198.84H410.733V195.048H409.437ZM410.733 199.88H414.893V203.656H410.733V199.88ZM429.82 194.984C432.172 194.984 433.516 195.528 433.516 196.488C433.516 197.448 432.172 197.992 429.82 197.992C427.484 197.992 426.124 197.448 426.124 196.488C426.124 195.528 427.484 194.984 429.82 194.984ZM429.82 198.968C432.988 198.968 434.86 198.104 434.86 196.488C434.86 194.872 432.988 193.992 429.82 193.992C426.668 193.992 424.78 194.872 424.78 196.488C424.78 198.104 426.668 198.968 429.82 198.968ZM431.42 202.312H428.156V200.888H431.42V202.312ZM436.3 200.888V199.832H423.34V200.888H426.86V202.312H424.908V203.304H433.356V204.584H424.94V208.024H435.084V207H426.22V205.544H434.652V202.312H432.716V200.888H436.3ZM444.539 195.064C446.891 195.064 448.235 195.608 448.235 196.568C448.235 197.528 446.891 198.072 444.539 198.072C442.187 198.072 440.843 197.528 440.843 196.568C440.843 195.608 442.187 195.064 444.539 195.064ZM444.539 199.048C447.691 199.048 449.579 198.184 449.579 196.568C449.579 194.952 447.691 194.072 444.539 194.072C441.387 194.072 439.499 194.952 439.499 196.568C439.499 198.184 441.387 199.048 444.539 199.048ZM440.939 205.544H449.371V202.312H439.611V203.304H448.075V204.584H439.659V208.024H449.803V207H440.939V205.544ZM438.043 200.024V201.08H451.035V200.024H438.043ZM463.758 207.16C461.486 207.16 460.158 206.6 460.158 205.592C460.158 204.584 461.486 204.024 463.758 204.024C465.998 204.024 467.326 204.584 467.326 205.592C467.326 206.6 465.998 207.16 463.758 207.16ZM463.758 203C460.686 203 458.83 203.928 458.83 205.592C458.83 207.256 460.686 208.184 463.758 208.184C466.798 208.184 468.654 207.256 468.654 205.592C468.654 203.928 466.798 203 463.758 203ZM464.414 200.92V199.256H468.734V198.2H460.206V195.544H468.638V194.488H458.894V199.256H463.102V200.92H457.262V201.976H470.254V200.92H464.414ZM480.445 200.84C478.365 200.104 476.957 198.296 476.957 196.456V195.88H480.109V194.808H472.445V195.88H475.645V196.456C475.645 198.488 474.157 200.408 472.029 201.16L472.717 202.2C474.397 201.576 475.709 200.264 476.317 198.616C476.957 200.104 478.189 201.288 479.789 201.864L480.445 200.84ZM474.205 204.264H482.477V208.2H483.789V203.208H474.205V204.264ZM482.477 193.832V197.576H479.677V198.648H482.477V202.424H483.789V193.832H482.477ZM493.18 194.728C490.204 194.728 487.964 196.312 487.964 198.696C487.964 201.096 490.204 202.664 493.18 202.664C496.156 202.664 498.396 201.096 498.396 198.696C498.396 196.312 496.156 194.728 493.18 194.728ZM493.18 195.8C495.452 195.8 497.148 196.968 497.148 198.696C497.148 200.44 495.452 201.592 493.18 201.592C490.924 201.592 489.212 200.44 489.212 198.696C489.212 196.968 490.924 195.8 493.18 195.8ZM486.684 205.192V206.28H499.724V205.192H486.684ZM508.57 205.336V202.632H513.162V201.576H504.33V199.256H512.826V194.888H503.002V195.96H511.546V198.2H503.034V202.632H507.242V205.336H501.402V206.408H514.442V205.336H508.57ZM531.117 197.528V199.56H527.805V197.528H531.117ZM526.509 200.952H522.637V198.36H526.509V200.952ZM527.805 200.632H531.117V204.456H532.445V193.848H531.117V196.472H527.805V194.792H526.509V197.32H522.637V194.792H521.341V202.008H527.805V200.632ZM524.525 206.792V203.416H523.213V207.864H532.781V206.792H524.525ZM543.996 195.576H540.38V193.848H539.068V195.576H535.42V196.616H543.996V195.576ZM537.58 200.12C537.58 199.128 538.444 198.472 539.724 198.472C541.004 198.472 541.868 199.128 541.868 200.12C541.868 201.112 541.004 201.752 539.724 201.752C538.444 201.752 537.58 201.112 537.58 200.12ZM540.38 202.744C542.028 202.536 543.116 201.544 543.116 200.12C543.116 198.504 541.724 197.464 539.724 197.464C537.724 197.464 536.332 198.504 536.332 200.12C536.332 201.544 537.42 202.536 539.068 202.744V204.312C537.676 204.36 536.332 204.36 535.18 204.36L535.356 205.464C537.868 205.464 541.244 205.432 544.316 204.888L544.236 203.912C543.004 204.104 541.676 204.2 540.38 204.264V202.744ZM548.636 199.928H546.396V193.832H545.084V208.184H546.396V201.032H548.636V199.928ZM555.147 195.08H553.851V197.656C553.851 200.376 552.107 203.128 549.995 204.136L550.795 205.208C552.475 204.344 553.851 202.552 554.507 200.392C555.195 202.44 556.571 204.136 558.203 204.936L558.987 203.88C556.859 202.92 555.147 200.28 555.147 197.656V195.08ZM560.491 193.832V208.216H561.803V193.832H560.491ZM565.85 195.32V196.392H571.114C571.05 197.272 570.922 198.104 570.65 198.904L565.114 199.272L565.338 200.424L570.234 199.96C569.354 201.88 567.706 203.528 565.066 204.808L565.77 205.848C570.922 203.304 572.41 199.48 572.41 195.32H565.85ZM575.242 193.832V208.184H576.554V193.832H575.242ZM591 198.152H582.552V194.36H581.24V199.224H591V198.152ZM582.456 203.64H581.144V207.832H591.08V206.76H582.456V203.64ZM579.48 201.144V202.2H592.488V201.144H579.48ZM604.652 200.296H600.588V197.928H604.652V200.296ZM605.932 194.744H604.652V196.904H600.588V194.744H599.292V201.352H605.932V194.744ZM605.276 207.144C603.132 207.144 601.852 206.536 601.852 205.512C601.852 204.488 603.132 203.896 605.276 203.896C607.388 203.896 608.684 204.488 608.684 205.512C608.684 206.536 607.388 207.144 605.276 207.144ZM605.276 202.84C602.348 202.84 600.54 203.816 600.54 205.512C600.54 207.208 602.348 208.184 605.276 208.184C608.188 208.184 609.996 207.208 609.996 205.512C609.996 203.816 608.188 202.84 605.276 202.84ZM609.836 197.448V193.832H608.524V202.472H609.836V198.536H611.964V197.448H609.836ZM622.074 200.584C619.946 199.848 618.474 197.976 618.474 195.912V194.504H617.162V195.912C617.162 198.056 615.706 200.056 613.546 200.84L614.218 201.88C615.898 201.24 617.21 199.912 617.834 198.216C618.474 199.8 619.77 201.032 621.418 201.624L622.074 200.584ZM615.594 204.264H623.882V208.2H625.194V203.208H615.594V204.264ZM623.882 193.848V202.472H625.194V193.848H623.882ZM634.617 195.064C636.969 195.064 638.313 195.608 638.313 196.568C638.313 197.528 636.969 198.072 634.617 198.072C632.265 198.072 630.921 197.528 630.921 196.568C630.921 195.608 632.265 195.064 634.617 195.064ZM634.617 199.048C637.769 199.048 639.657 198.184 639.657 196.568C639.657 194.952 637.769 194.072 634.617 194.072C631.465 194.072 629.577 194.952 629.577 196.568C629.577 198.184 631.465 199.048 634.617 199.048ZM631.017 205.544H639.449V202.312H629.689V203.304H638.153V204.584H629.737V208.024H639.881V207H631.017V205.544ZM628.121 200.024V201.08H641.113V200.024H628.121ZM648.54 200.904C650.22 200.488 651.5 199.528 652.108 198.264C652.732 199.432 653.98 200.296 655.628 200.696L656.156 199.672C654.124 199.208 652.732 197.976 652.732 196.536V196.504H655.9V195.464H652.732V193.864H651.42V195.464H648.268V196.504H651.436V196.536C651.436 198.072 650.044 199.384 647.98 199.864L648.54 200.904ZM656.78 201.432C653.644 201.88 650.044 201.896 647.308 201.896L647.484 203C648.684 203 650.044 202.984 651.452 202.936V207.768H652.764V202.856C654.124 202.776 655.532 202.632 656.876 202.408L656.78 201.432ZM657.804 193.848V208.2H659.116V193.848H657.804ZM670.571 195.304H666.987V193.688H665.675V195.304H662.107V196.36H670.571V195.304ZM664.155 199.544C664.155 198.616 665.019 198.024 666.331 198.024C667.643 198.024 668.523 198.616 668.523 199.544C668.523 200.488 667.643 201.064 666.331 201.064C665.019 201.064 664.155 200.488 664.155 199.544ZM669.771 199.544C669.771 198.024 668.379 197.048 666.331 197.048C664.283 197.048 662.907 198.024 662.907 199.544C662.907 201.08 664.283 202.056 666.331 202.056C668.379 202.056 669.771 201.08 669.771 199.544ZM671.899 206.936H665.467V205.352H671.899V206.936ZM671.899 204.328H665.467V202.808H664.171V207.992H673.195V202.808H671.899V204.328ZM675.323 197.48H673.195V193.832H671.883V202.168H673.195V198.584H675.323V197.48ZM678.986 195.224H677.674V204.472H678.858C681.146 204.472 683.402 204.312 685.898 203.8L685.754 202.68C683.37 203.16 681.146 203.352 678.986 203.352V195.224ZM687.226 193.832V208.168H688.538V193.832H687.226ZM693.416 196.296H698.776V195.208H692.104V204.632H693.24C695.944 204.632 697.832 204.536 700.024 204.12L699.88 203.032C697.8 203.4 695.96 203.512 693.416 203.512V196.296ZM704.904 199.496H702.536V193.832H701.224V208.216H702.536V200.584H704.904V199.496ZM707.591 207.208C708.167 207.208 708.647 206.76 708.647 206.104C708.647 205.448 708.167 204.968 707.591 204.968C707.015 204.968 706.535 205.448 706.535 206.104C706.535 206.76 707.015 207.208 707.591 207.208ZM199.11 234.312V235.288H202.022V236.76H203.334V225.832H202.022V234.312H199.11ZM196.182 227.384C197.542 227.384 198.47 227.992 198.47 228.904C198.47 229.832 197.542 230.44 196.182 230.44C194.822 230.44 193.894 229.832 193.894 228.904C193.894 227.992 194.822 227.384 196.182 227.384ZM196.182 231.416C198.278 231.416 199.718 230.44 199.718 228.904C199.718 227.4 198.278 226.408 196.182 226.408C194.086 226.408 192.646 227.4 192.646 228.904C192.646 230.44 194.086 231.416 196.182 231.416ZM195.67 236.248H196.982V233.416C198.278 233.336 199.606 233.192 200.87 233L200.758 232.056C197.718 232.44 194.166 232.472 191.51 232.472L191.686 233.56C192.87 233.56 194.246 233.544 195.67 233.48V236.248ZM194.87 238.792V235.688H193.558V239.864H203.702V238.792H194.87ZM210.517 235.896C209.221 235.896 208.277 234.968 208.277 233.688C208.277 232.392 209.221 231.464 210.517 231.464C211.829 231.464 212.773 232.392 212.773 233.688C212.773 234.968 211.829 235.896 210.517 235.896ZM210.517 230.376C208.501 230.376 207.045 231.752 207.045 233.688C207.045 235.64 208.501 236.984 210.517 236.984C212.565 236.984 214.021 235.64 214.021 233.688C214.021 231.752 212.565 230.376 210.517 230.376ZM211.157 226.008H209.845V228.136H206.229V229.192H214.693V228.136H211.157V226.008ZM219.717 231.736H217.365V225.848H216.053V240.184H217.365V232.84H219.717V231.736ZM232.532 230.152H224.084V226.36H222.772V231.224H232.532V230.152ZM223.988 235.64H222.676V239.832H232.612V238.76H223.988V235.64ZM221.012 233.144V234.2H234.02V233.144H221.012ZM241.469 232.296H246.765V227.16H240.109V228.232H245.437V231.224H240.157V236.728H241.341C243.805 236.728 245.981 236.632 248.573 236.2L248.445 235.128C245.933 235.528 243.821 235.64 241.469 235.64V232.296ZM249.789 225.816V240.2H251.101V225.816H249.789ZM263.067 230.12H264.891V233.32H266.155V225.848H264.891V229.048H263.067V226.136H261.819V233.192H263.067V230.12ZM259.019 231.608H255.931V229.496H259.019V231.608ZM260.251 226.6H259.019V228.488H255.931V226.6H254.683V232.632H260.251V226.6ZM258.011 238.984V237.4H266.155V233.976H256.683V235H264.843V236.424H256.715V240.024H266.667V238.984H258.011ZM279.258 236.36H280.586V225.848H279.258V229.576H276.586V230.696H279.258V236.36ZM276.842 232.936C274.938 233.256 273.322 233.336 270.65 233.336V231.032H275.69V226.84H269.322V227.896H274.378V230.024H269.354V234.408H270.442C273.274 234.408 274.954 234.344 276.97 234.008L276.842 232.936ZM272.634 238.792V235.576H271.322V239.864H281.018V238.792H272.634ZM295.257 225.848H293.945V234.408H295.257V225.848ZM292.153 232.488C290.025 231.768 288.537 229.928 288.537 227.88V226.472H287.225V227.88C287.225 230.04 285.769 232.056 283.609 232.856L284.281 233.896C285.977 233.256 287.289 231.88 287.897 230.168C288.553 231.72 289.849 232.936 291.497 233.528L292.153 232.488ZM290.521 239.112C288.329 239.112 287.001 238.488 287.001 237.448C287.001 236.392 288.329 235.768 290.521 235.768C292.697 235.768 294.009 236.392 294.009 237.448C294.009 238.488 292.697 239.112 290.521 239.112ZM290.521 234.744C287.529 234.744 285.705 235.72 285.705 237.448C285.705 239.16 287.529 240.152 290.521 240.152C293.481 240.152 295.321 239.16 295.321 237.448C295.321 235.72 293.481 234.744 290.521 234.744ZM303.058 232.808C305.282 232.424 307.394 231.224 308.274 229.528C309.138 231.224 311.266 232.424 313.49 232.808L314.002 231.768C311.474 231.4 308.994 229.752 308.994 227.864V227.784H313.49V226.728H303.01V227.784H307.538V227.864C307.538 229.752 305.058 231.4 302.562 231.768L303.058 232.808ZM314.754 234.008H301.794V235.08H307.586V240.184H308.898V235.08H314.77L314.754 234.008ZM317.344 227.384V228.44H322.736C322.464 231.848 320.544 234.6 316.688 236.44L317.392 237.512C322.16 235.176 324.064 231.528 324.064 227.384H317.344ZM326.96 225.832V240.184H328.272V225.832H326.96ZM341.263 228.344H332.879V231.416H342.815V230.472H334.175V229.24H342.559V226.248H332.847V227.176H341.263V228.344ZM334.095 237.72H342.607V234.664H332.767V235.608H341.311V236.808H332.799V239.992H343.055V239.048H334.095V237.72ZM331.215 232.504V233.496H344.223V232.504H331.215ZM360.008 236.568H361.336V225.848H360.008V229.208H356.872V230.296H360.008V236.568ZM357.896 233.176C355.832 232.408 354.424 230.52 354.424 228.52V226.696H353.112V228.472C353.112 230.664 351.672 232.696 349.528 233.48L350.216 234.52C351.896 233.848 353.176 232.488 353.784 230.776C354.392 232.328 355.624 233.56 357.208 234.184L357.896 233.176ZM353.416 238.792V235.384H352.104V239.864H361.672V238.792H353.416ZM370.951 232.328C369.447 232.632 368.167 232.712 366.119 232.712V230.76H370.231V229.752H366.119V227.944H370.391V226.888H364.855V233.784H365.767C368.071 233.784 369.431 233.72 371.079 233.384L370.951 232.328ZM366.695 236.344H375.031V240.184H376.343V235.288H366.695V236.344ZM375.079 225.848V229.576H373.159V226.104H371.911V234.44H373.159V230.648H375.079V234.536H376.343V225.848H375.079ZM382.502 235.768C381.382 235.768 380.598 234.856 380.598 233.576C380.598 232.328 381.382 231.416 382.502 231.416C383.606 231.416 384.406 232.328 384.406 233.576C384.406 234.856 383.606 235.768 382.502 235.768ZM382.502 230.312C380.726 230.312 379.43 231.656 379.43 233.576C379.43 235.528 380.726 236.856 382.502 236.856C384.278 236.856 385.574 235.528 385.574 233.576C385.574 231.656 384.278 230.312 382.502 230.312ZM383.142 226.248H381.846V228.28H378.934V229.352H386.054V228.28H383.142V226.248ZM389.846 225.816V231.88H388.006V226.152H386.774V239.48H388.006V232.952H389.846V240.168H391.11V225.816H389.846ZM394.948 232.808C397.172 232.424 399.284 231.224 400.164 229.528C401.028 231.224 403.156 232.424 405.38 232.808L405.892 231.768C403.364 231.4 400.884 229.752 400.884 227.864V227.784H405.38V226.728H394.9V227.784H399.428V227.864C399.428 229.752 396.948 231.4 394.452 231.768L394.948 232.808ZM406.644 234.008H393.684V235.08H399.476V240.184H400.788V235.08H406.66L406.644 234.008ZM412.643 227.192H411.379V229.928C411.379 232.392 410.195 234.968 408.227 236.12L409.043 237.112C410.467 236.232 411.507 234.6 412.019 232.696C412.531 234.44 413.491 235.96 414.851 236.792L415.603 235.768C413.715 234.616 412.643 232.184 412.643 229.88V227.192ZM416.419 230.984H414.051V232.072H416.419V239.48H417.651V226.152H416.419V230.984ZM419.331 225.832V240.184H420.579V225.832H419.331ZM427.602 233.88C428.194 234.024 428.882 234.104 429.586 234.104C430.306 234.104 430.994 234.024 431.602 233.88V237.256H427.602V233.88ZM429.586 227.768C431.89 227.768 433.554 228.824 433.554 230.424C433.554 232.024 431.89 233.08 429.586 233.08C427.282 233.08 425.634 232.024 425.634 230.424C425.634 228.824 427.282 227.768 429.586 227.768ZM432.914 237.256V233.368C434.098 232.744 434.802 231.72 434.802 230.424C434.802 228.184 432.642 226.744 429.586 226.744C426.546 226.744 424.37 228.184 424.37 230.424C424.37 231.72 425.09 232.76 426.29 233.384V237.256H423.09V238.344H436.13V237.256H432.914ZM439.201 239.208C439.777 239.208 440.257 238.76 440.257 238.104C440.257 237.448 439.777 236.968 439.201 236.968C438.625 236.968 438.145 237.448 438.145 238.104C438.145 238.76 438.625 239.208 439.201 239.208ZM448.832 242.152L449.744 241.72C448.352 239.448 447.696 236.744 447.696 234.024C447.696 231.304 448.352 228.616 449.744 226.328L448.832 225.912C447.36 228.296 446.48 230.888 446.48 234.024C446.48 237.176 447.36 239.752 448.832 242.152ZM452.11 227.384V228.44H457.502C457.23 231.848 455.31 234.6 451.454 236.44L452.158 237.512C456.926 235.176 458.83 231.528 458.83 227.384H452.11ZM461.726 225.832V240.184H463.038V225.832H461.726ZM468.957 235.896H467.645V239.864H477.517V238.792H468.957V235.896ZM468.989 229.24H475.965V231.08H468.989V229.24ZM473.133 233.672V232.136H477.261V226.408H475.965V228.216H468.989V226.408H467.693V232.136H471.821V233.672H465.965V234.744H478.957V233.672H473.133ZM481.372 226.696V227.768H486.524C486.3 230.056 484.252 231.848 480.732 232.712L481.228 233.784C485.436 232.744 487.948 230.312 487.948 226.696H481.372ZM485.964 238.968H483.5V237.096H485.964V238.968ZM485.964 236.088H483.5V234.36H482.268V239.976H487.18V234.36H485.964V236.088ZM491.02 234.232H489.756V235.432C489.756 236.792 488.924 238.392 487.276 239.144L487.98 240.12C489.164 239.576 489.964 238.6 490.38 237.48C490.812 238.616 491.596 239.576 492.78 240.12L493.484 239.144C491.82 238.408 491.02 236.792 491.02 235.384V234.232ZM491.836 229.144V225.832H490.524V233.64H491.836V230.232H493.964V229.144H491.836ZM501.898 227.384C504.154 227.384 505.594 228.056 505.594 229.192C505.594 230.328 504.154 230.984 501.898 230.984C499.642 230.984 498.202 230.328 498.202 229.192C498.202 228.056 499.642 227.384 501.898 227.384ZM501.898 232.04C504.97 232.04 506.938 230.984 506.938 229.192C506.938 227.4 504.97 226.328 501.898 226.328C498.826 226.328 496.858 227.4 496.858 229.192C496.858 230.984 498.826 232.04 501.898 232.04ZM498.394 235.704H497.082V239.864H506.954V238.792H498.394V235.704ZM495.402 233.384V234.44H508.378V233.384H495.402ZM512.201 226.552C510.969 227.272 510.297 228.296 510.297 229.72C510.297 230.744 510.713 231.32 511.417 231.32C511.977 231.32 512.361 230.968 512.361 230.344C512.361 229.768 511.913 229.448 511.417 229.448C511.353 229.448 511.305 229.448 511.257 229.464C511.273 228.44 511.737 227.832 512.617 227.24L512.201 226.552ZM515.582 234.6L518.254 230.6C518.59 230.024 518.91 229.448 519.198 228.872H519.262C519.23 229.48 519.166 230.424 519.166 231V234.6H515.582ZM522.11 234.6H520.558V227.272H518.942L514.062 234.808V235.768H519.166V239H520.558V235.768H522.11V234.6ZM527.065 239.208C529.289 239.208 530.713 237.176 530.713 233.096C530.713 229.032 529.289 227.048 527.065 227.048C524.825 227.048 523.401 229.016 523.401 233.096C523.401 237.176 524.825 239.208 527.065 239.208ZM527.065 238.04C525.721 238.04 524.825 236.552 524.825 233.096C524.825 229.672 525.721 228.232 527.065 228.232C528.393 228.232 529.289 229.672 529.289 233.096C529.289 236.552 528.393 238.04 527.065 238.04ZM544.116 225.832H542.804V233.192H544.116V225.832ZM533.94 229.544C533.94 228.296 534.98 227.416 536.372 227.416C537.78 227.416 538.804 228.296 538.804 229.544C538.804 230.776 537.78 231.656 536.372 231.656C534.98 231.656 533.94 230.776 533.94 229.544ZM540.084 229.544C540.084 227.64 538.516 226.344 536.372 226.344C534.228 226.344 532.676 227.64 532.676 229.544C532.676 231.432 534.228 232.712 536.372 232.712C538.516 232.712 540.084 231.432 540.084 229.544ZM536.148 238.952V237.368H544.116V233.896H534.82V234.936H542.82V236.392H534.852V239.992H544.596V238.952H536.148ZM547.747 231.288C548.979 230.568 549.651 229.544 549.651 228.12C549.651 227.096 549.219 226.504 548.515 226.504C547.971 226.504 547.587 226.872 547.587 227.48C547.587 228.072 548.035 228.392 548.515 228.392C548.579 228.392 548.627 228.392 548.675 228.376C548.659 229.4 548.211 229.992 547.331 230.6L547.747 231.288ZM561.976 225.848V233.544H563.288V225.848H561.976ZM554.04 234.248V239.992H563.288V234.248H561.992V236.008H555.336V234.248H554.04ZM555.336 237.032H561.992V238.936H555.336V237.032ZM555.576 226.52C553.416 226.52 551.848 227.864 551.848 229.816C551.848 231.8 553.416 233.128 555.576 233.128C557.752 233.128 559.336 231.8 559.336 229.816C559.336 227.864 557.752 226.52 555.576 226.52ZM555.576 227.608C557.032 227.608 558.056 228.52 558.056 229.816C558.056 231.128 557.032 232.04 555.576 232.04C554.152 232.04 553.128 231.128 553.128 229.816C553.128 228.52 554.152 227.608 555.576 227.608ZM568.439 227.224H567.127V236.472H568.311C570.599 236.472 572.855 236.312 575.351 235.8L575.207 234.68C572.823 235.16 570.599 235.352 568.439 235.352V227.224ZM576.679 225.832V240.168H577.991V225.832H576.679ZM582.87 228.296H588.23V227.208H581.558V236.632H582.694C585.398 236.632 587.286 236.536 589.478 236.12L589.334 235.032C587.254 235.4 585.414 235.512 582.87 235.512V228.296ZM594.358 231.496H591.99V225.832H590.678V240.216H591.99V232.584H594.358V231.496ZM597.044 239.208C597.62 239.208 598.1 238.76 598.1 238.104C598.1 237.448 597.62 236.968 597.044 236.968C596.468 236.968 595.988 237.448 595.988 238.104C595.988 238.76 596.468 239.208 597.044 239.208ZM600.857 242.152C602.345 239.752 603.225 237.176 603.225 234.024C603.225 230.888 602.345 228.296 600.857 225.912L599.961 226.328C601.337 228.616 602.009 231.304 602.009 234.024C602.009 236.744 601.337 239.448 599.961 241.72L600.857 242.152ZM225.581 295.464L226.845 293.944L228.109 295.464L228.813 294.952L227.789 293.288L229.533 292.568L229.261 291.752L227.437 292.184L227.277 290.264H226.413L226.253 292.2L224.429 291.752L224.141 292.568L225.885 293.288L224.877 294.952L225.581 295.464ZM246.788 289.832H245.476V297.192H246.788V289.832ZM236.612 293.544C236.612 292.296 237.652 291.416 239.044 291.416C240.452 291.416 241.476 292.296 241.476 293.544C241.476 294.776 240.452 295.656 239.044 295.656C237.652 295.656 236.612 294.776 236.612 293.544ZM242.756 293.544C242.756 291.64 241.188 290.344 239.044 290.344C236.9 290.344 235.348 291.64 235.348 293.544C235.348 295.432 236.9 296.712 239.044 296.712C241.188 296.712 242.756 295.432 242.756 293.544ZM238.82 302.952V301.368H246.788V297.896H237.492V298.936H245.492V300.392H237.524V303.992H247.268V302.952H238.82ZM251.011 296.808C253.235 296.424 255.347 295.224 256.227 293.528C257.091 295.224 259.219 296.424 261.443 296.808L261.955 295.768C259.427 295.4 256.947 293.752 256.947 291.864V291.784H261.443V290.728H250.963V291.784H255.491V291.864C255.491 293.752 253.011 295.4 250.515 295.768L251.011 296.808ZM262.707 298.008H249.747V299.08H255.539V304.184H256.851V299.08H262.723L262.707 298.008ZM276.226 289.832H274.914V297.192H276.226V289.832ZM266.05 293.544C266.05 292.296 267.09 291.416 268.482 291.416C269.89 291.416 270.914 292.296 270.914 293.544C270.914 294.776 269.89 295.656 268.482 295.656C267.09 295.656 266.05 294.776 266.05 293.544ZM272.194 293.544C272.194 291.64 270.626 290.344 268.482 290.344C266.338 290.344 264.786 291.64 264.786 293.544C264.786 295.432 266.338 296.712 268.482 296.712C270.626 296.712 272.194 295.432 272.194 293.544ZM268.258 302.952V301.368H276.226V297.896H266.93V298.936H274.93V300.392H266.962V303.992H276.706V302.952H268.258ZM283.824 290.888C281.6 290.888 279.984 292.248 279.984 294.264C279.984 296.264 281.6 297.64 283.824 297.64C286.064 297.64 287.664 296.264 287.664 294.264C287.664 292.248 286.064 290.888 283.824 290.888ZM283.824 292.008C285.312 292.008 286.384 292.92 286.384 294.264C286.384 295.592 285.312 296.52 283.824 296.52C282.336 296.52 281.264 295.592 281.264 294.264C281.264 292.92 282.336 292.008 283.824 292.008ZM289.552 289.832V304.216H290.864V289.832H289.552ZM279.424 301.064C282.016 301.064 285.488 301.048 288.72 300.44L288.608 299.464C285.472 299.944 281.872 299.96 279.264 299.96L279.424 301.064ZM298.937 294.088C298.937 292.76 299.993 291.8 301.385 291.8C302.793 291.8 303.817 292.76 303.817 294.088C303.817 295.432 302.793 296.392 301.385 296.392C299.993 296.392 298.937 295.432 298.937 294.088ZM307.961 292.968V295.208H304.873C305.001 294.856 305.065 294.488 305.065 294.088C305.065 293.672 305.001 293.304 304.889 292.968H307.961ZM307.961 296.28V298.328H309.289V289.832H307.961V291.896H304.281C303.625 291.16 302.601 290.696 301.385 290.696C299.257 290.696 297.689 292.088 297.689 294.088C297.689 296.104 299.257 297.512 301.385 297.512C302.601 297.512 303.625 297.048 304.281 296.28H307.961ZM304.537 303.128C302.377 303.128 301.065 302.488 301.065 301.416C301.065 300.328 302.377 299.688 304.537 299.688C306.729 299.688 308.041 300.328 308.041 301.416C308.041 302.488 306.729 303.128 304.537 303.128ZM304.537 298.664C301.593 298.664 299.769 299.672 299.769 301.416C299.769 303.16 301.593 304.168 304.537 304.168C307.497 304.168 309.337 303.16 309.337 301.416C309.337 299.672 307.497 298.664 304.537 298.664ZM322.696 302.936H316.12V301.08H322.696V302.936ZM322.696 300.056H316.12V298.248H314.824V303.992H324.008V298.248H322.696V300.056ZM316.104 296.056C314.68 296.056 313.656 295.128 313.656 293.816C313.656 292.504 314.68 291.592 316.104 291.592C317.528 291.592 318.552 292.504 318.552 293.816C318.552 295.128 317.528 296.056 316.104 296.056ZM322.68 289.848V293.256H319.752C319.48 291.592 318.04 290.504 316.104 290.504C313.96 290.504 312.408 291.848 312.408 293.816C312.408 295.8 313.96 297.144 316.104 297.144C318.072 297.144 319.512 296.024 319.768 294.328H322.68V297.544H324.008V289.848H322.68ZM338.679 289.832H337.367V297.192H338.679V289.832ZM328.503 293.544C328.503 292.296 329.543 291.416 330.935 291.416C332.343 291.416 333.367 292.296 333.367 293.544C333.367 294.776 332.343 295.656 330.935 295.656C329.543 295.656 328.503 294.776 328.503 293.544ZM334.647 293.544C334.647 291.64 333.079 290.344 330.935 290.344C328.791 290.344 327.239 291.64 327.239 293.544C327.239 295.432 328.791 296.712 330.935 296.712C333.079 296.712 334.647 295.432 334.647 293.544ZM330.711 302.952V301.368H338.679V297.896H329.383V298.936H337.383V300.392H329.415V303.992H339.159V302.952H330.711ZM357.552 295.304C354.944 294.92 352.384 293.144 352.384 291.144V290.344H351.008V291.144C351.008 293.192 348.48 294.92 345.872 295.304L346.4 296.36C348.64 295.976 350.8 294.744 351.696 293C352.624 294.728 354.784 295.976 357.008 296.36L357.552 295.304ZM358.176 297.912H345.216V299H351.008V304.2H352.32V299H358.192L358.176 297.912ZM397.663 293.816L398.463 294.632L395.743 297.352L398.447 300.072L397.647 300.888L394.911 298.184L392.239 300.888L391.407 300.072L394.111 297.352L391.391 294.648L392.223 293.816L394.927 296.552L397.663 293.816ZM415.326 295.176H407.07V291.752H415.15V290.68H405.726V296.232H415.326V295.176ZM416.958 298.104H403.95V299.176H409.758V304.12H411.07V299.176H416.958V298.104ZM430.55 294.968C428.63 295.352 426.966 295.464 424.182 295.464V291.72H429.222V290.664H422.886V296.52H423.99C426.95 296.52 428.694 296.424 430.71 296.008L430.55 294.968ZM425.59 301.32H433.382V297.784H424.262V298.824H432.086V300.328H424.31V303.992H433.91V302.936H425.59V301.32ZM433.382 292.856V289.832H432.07V297.048H433.382V293.928H435.51V292.856H433.382ZM443.445 291.064C445.797 291.064 447.141 291.608 447.141 292.568C447.141 293.528 445.797 294.072 443.445 294.072C441.093 294.072 439.749 293.528 439.749 292.568C439.749 291.608 441.093 291.064 443.445 291.064ZM443.445 295.048C446.597 295.048 448.485 294.184 448.485 292.568C448.485 290.952 446.597 290.072 443.445 290.072C440.293 290.072 438.405 290.952 438.405 292.568C438.405 294.184 440.293 295.048 443.445 295.048ZM439.845 301.544H448.277V298.312H438.517V299.304H446.981V300.584H438.565V304.024H448.709V303H439.845V301.544ZM436.949 296.024V297.08H449.941V296.024H436.949ZM486.555 301.336V298.632H491.147V297.576H482.315V295.256H490.811V290.888H480.987V291.96H489.531V294.2H481.019V298.632H485.227V301.336H479.387V302.408H492.427V301.336H486.555ZM505.764 293.832H503.636C503.764 293.112 503.828 292.392 503.828 291.656H498.324V292.728H502.532C502.308 295.736 500.772 298.312 497.684 300.152L498.452 301.08C501.172 299.464 502.724 297.304 503.396 294.888H505.764V297.416H503.172V298.488H505.764V303.448H507.012V290.216H505.764V293.832ZM508.644 289.832V304.168H509.892V289.832H508.644ZM520.786 297.048C518.674 296.296 517.25 294.472 517.25 292.504V290.696H515.938V292.472C515.938 294.696 514.546 296.616 512.354 297.4L513.042 298.44C514.754 297.8 516.034 296.488 516.626 294.792C517.266 296.296 518.514 297.496 520.13 298.088L520.786 297.048ZM515.97 299.416H514.658V303.864H524.178V302.792H515.97V299.416ZM523.554 294.232V289.816H522.242V300.424H523.554V295.32H525.682V294.232H523.554ZM530.475 295.736H538.139V294.648H530.475V295.736ZM530.475 299.56H538.139V298.472H530.475V299.56Z" fill="black"/>
<path d="M185.964 163.944C187.052 163.944 187.804 164.456 187.804 165.384C187.804 166.28 187.052 166.792 185.964 166.792C184.892 166.792 184.124 166.28 184.124 165.384C184.124 164.456 184.892 163.944 185.964 163.944ZM185.964 168.52C188.188 168.52 189.82 167.208 189.82 165.384C189.82 163.528 188.188 162.232 185.964 162.232C183.74 162.232 182.092 163.528 182.092 165.384C182.092 167.208 183.74 168.52 185.964 168.52ZM190.572 168.888C187.452 169.352 183.804 169.384 181.228 169.384L181.468 171.112C182.508 171.112 183.708 171.096 184.972 171.048V175.928H187.084V170.92C188.284 170.824 189.516 170.664 190.7 170.424L190.572 168.888ZM191.404 161.64V176.36H193.516V161.64H191.404ZM204.555 162.936H201.291V161.528H199.179V162.936H195.931V164.584H204.555V162.936ZM198.731 167.72C198.731 167.016 199.355 166.632 200.251 166.632C201.147 166.632 201.771 167.016 201.771 167.72C201.771 168.44 201.147 168.824 200.251 168.824C199.355 168.824 198.731 168.44 198.731 167.72ZM203.787 167.72C203.787 166.152 202.315 165.08 200.251 165.08C198.187 165.08 196.715 166.152 196.715 167.72C196.715 169.288 198.187 170.376 200.251 170.376C202.315 170.376 203.787 169.288 203.787 167.72ZM200.491 172.824H206.155V174.552H200.491V172.824ZM198.411 176.2H208.219V171.16H198.411V176.2ZM206.107 161.64V165.944H204.267V167.656H206.107V170.536H208.219V161.64H206.107ZM222.115 167.96C222.451 166.104 222.451 164.648 222.451 163.624V162.712H214.883V164.392H220.371C220.355 165.272 220.291 166.344 220.051 167.72L222.115 167.96ZM223.091 168.552C221.715 168.744 220.243 168.856 218.787 168.92V166.136H216.723V169C215.763 169.016 214.851 169.016 214.035 169.016L214.227 170.696C216.755 170.68 220.179 170.616 223.219 170.056L223.091 168.552ZM218.291 171.688H216.179V176.12H226.467V174.44H218.291V171.688ZM226.003 166.12V161.624H223.891V172.664H226.003V167.864H227.763V166.12H226.003ZM231.905 168.584H236.689V162.888H229.729V164.568H234.529V166.92H229.745V172.984H231.073C233.745 172.984 235.905 172.888 238.305 172.472L238.081 170.76C236.001 171.112 234.145 171.224 231.905 171.24V168.584ZM239.105 161.624V176.408H241.217V161.624H239.105ZM253.312 164.04H245.344V167.56H255.648V166.136H247.424V165.368H255.392V161.896H245.312V163.32H253.312V164.04ZM247.296 174.024H255.44V170.52H245.184V171.944H253.344V172.696H245.2V176.248H255.84V174.824H247.296V174.024ZM243.68 168.264V169.784H257.024V168.264H243.68ZM266.808 163.944C267.896 163.944 268.648 164.456 268.648 165.384C268.648 166.28 267.896 166.792 266.808 166.792C265.736 166.792 264.968 166.28 264.968 165.384C264.968 164.456 265.736 163.944 266.808 163.944ZM266.808 168.52C269.032 168.52 270.664 167.208 270.664 165.384C270.664 163.528 269.032 162.232 266.808 162.232C264.584 162.232 262.936 163.528 262.936 165.384C262.936 167.208 264.584 168.52 266.808 168.52ZM271.416 168.888C268.296 169.352 264.648 169.384 262.072 169.384L262.312 171.112C263.352 171.112 264.552 171.096 265.816 171.048V175.928H267.928V170.92C269.128 170.824 270.36 170.664 271.544 170.424L271.416 168.888ZM272.248 161.64V176.36H274.36V161.64H272.248ZM280.279 171.448C279.479 171.448 278.903 170.808 278.903 169.704C278.903 168.6 279.479 167.944 280.279 167.944C281.079 167.944 281.655 168.6 281.655 169.704C281.655 170.808 281.079 171.448 280.279 171.448ZM280.279 166.184C278.391 166.184 277.047 167.64 277.047 169.704C277.047 171.752 278.391 173.208 280.279 173.208C282.167 173.208 283.511 171.752 283.511 169.704C283.511 167.64 282.167 166.184 280.279 166.184ZM281.319 162.04H279.239V163.864H276.727V165.544H283.767V163.864H281.319V162.04ZM287.383 161.624V167.64H286.263V161.912H284.295V175.752H286.263V169.336H287.383V176.36H289.383V161.624H287.383ZM307.022 167.656H298.83V166.552H306.558V164.952H298.83V163.88H306.878V162.216H296.734V169.32H307.022V167.656ZM308.414 170.376H295.07V172.088H300.67V176.392H302.782V172.088H308.414V170.376ZM315.213 164.792H318.141V163.048H310.045V164.792H313.101V165.608C313.101 168.04 311.901 170.808 309.485 171.928L310.669 173.608C312.349 172.808 313.533 171.192 314.189 169.272C314.845 171.016 315.997 172.488 317.629 173.24L318.797 171.576C316.381 170.456 315.213 167.848 315.213 165.608V164.792ZM323.485 167.256H321.341V161.64H319.229V176.376H321.341V169H323.485V167.256ZM333.557 164.792H336.485V163.048H328.389V164.792H331.445V165.608C331.445 168.04 330.245 170.808 327.829 171.928L329.013 173.608C330.693 172.808 331.877 171.192 332.533 169.272C333.189 171.016 334.341 172.488 335.973 173.24L337.141 171.576C334.725 170.456 333.557 167.848 333.557 165.608V164.792ZM341.829 167.256H339.685V161.64H337.573V176.376H339.685V169H341.829V167.256ZM351.684 168.632C349.3 167.864 348.308 166.008 348.308 164.136V162.536H346.164V164.12C346.164 166.136 345.124 168.104 342.644 168.904L343.764 170.552C345.444 169.992 346.612 168.84 347.268 167.368C347.908 168.696 348.996 169.752 350.596 170.28L351.684 168.632ZM347.092 171.4H344.98V176.12H354.98V174.44H347.092V171.4ZM354.468 165.912V161.64H352.356V172.424H354.468V167.656H356.42V165.912H354.468ZM362.322 162.616C360.018 162.616 358.274 164.136 358.274 166.248C358.274 168.376 360.018 169.88 362.322 169.88C364.626 169.88 366.386 168.376 366.386 166.248C366.386 164.136 364.626 162.616 362.322 162.616ZM362.322 164.424C363.458 164.424 364.322 165.096 364.322 166.248C364.322 167.4 363.458 168.072 362.322 168.072C361.186 168.072 360.322 167.4 360.322 166.248C360.322 165.096 361.186 164.424 362.322 164.424ZM367.762 161.624V176.408H369.874V161.624H367.762ZM357.922 173.416C360.466 173.416 363.922 173.384 367.09 172.744L366.962 171.224C363.858 171.688 360.242 171.704 357.65 171.704L357.922 173.416ZM386.026 161.624V176.408H388.138V161.624H386.026ZM376.65 162.808V172.968H383.914V162.808H381.818V166.376H378.746V162.808H376.65ZM378.746 168.024H381.818V171.288H378.746V168.024ZM391.929 167.752C394.713 167.512 396.521 166.472 397.305 165.08C398.089 166.472 399.897 167.512 402.665 167.752L403.401 166.12C400.649 165.88 399.209 164.92 398.841 163.928H402.761V162.248H391.865V163.928H395.769C395.401 164.92 393.961 165.88 391.225 166.12L391.929 167.752ZM400.249 173.72C400.249 174.456 399.241 174.776 397.273 174.776C395.305 174.776 394.297 174.456 394.297 173.72C394.297 172.968 395.305 172.648 397.273 172.648C399.241 172.648 400.249 172.968 400.249 173.72ZM403.961 170.008V168.328H390.649V170.008H396.249V171.08C393.689 171.288 392.169 172.2 392.169 173.72C392.169 175.416 394.089 176.392 397.273 176.392C400.457 176.392 402.393 175.416 402.393 173.72C402.393 172.216 400.889 171.304 398.361 171.096V170.008H403.961ZM412.024 163.4C414.168 163.4 415.176 163.704 415.176 164.36C415.176 165.048 414.168 165.336 412.024 165.336C409.896 165.336 408.888 165.048 408.888 164.36C408.888 163.704 409.896 163.4 412.024 163.4ZM412.024 166.872C415.4 166.872 417.368 165.992 417.368 164.36C417.368 162.744 415.4 161.848 412.024 161.848C408.664 161.848 406.696 162.744 406.696 164.36C406.696 165.992 408.664 166.872 412.024 166.872ZM409 173.848H417.064V170.056H406.888V171.608H414.984V172.392H406.904V176.264H417.448V174.68H409V173.848ZM405.368 167.576V169.224H418.68V167.576H405.368ZM435.951 161.64H433.823V169.016H435.951V161.64ZM425.967 165.432C425.967 164.392 426.783 163.768 427.871 163.768C428.959 163.768 429.743 164.392 429.743 165.432C429.743 166.488 428.959 167.096 427.871 167.096C426.783 167.096 425.967 166.488 425.967 165.432ZM431.791 165.432C431.791 163.48 430.111 162.072 427.871 162.072C425.615 162.072 423.919 163.48 423.919 165.432C423.919 167.4 425.615 168.808 427.871 168.808C430.111 168.808 431.791 167.4 431.791 165.432ZM428.239 174.568V173.64H435.951V169.624H426.127V171.24H433.855V172.136H426.143V176.216H436.319V174.568H428.239ZM446.43 165.192V166.904H448.638V170.408H450.75V161.64H448.638V165.192H446.43ZM447.31 168.36C445.07 167.624 444.046 165.896 443.982 164.216H446.846V162.52H438.926V164.216H441.822C441.758 166.056 440.686 167.928 438.35 168.744L439.422 170.408C441.134 169.832 442.302 168.632 442.942 167.144C443.582 168.44 444.686 169.48 446.286 170.008L447.31 168.36ZM445.774 174.792C443.838 174.792 442.83 174.392 442.83 173.56C442.83 172.728 443.838 172.328 445.774 172.328C447.694 172.328 448.702 172.728 448.702 173.56C448.702 174.392 447.694 174.792 445.774 174.792ZM445.774 170.728C442.638 170.728 440.718 171.768 440.718 173.56C440.718 175.352 442.638 176.392 445.774 176.392C448.894 176.392 450.814 175.352 450.814 173.56C450.814 171.768 448.894 170.728 445.774 170.728ZM457.59 163.16V164.84H462.502C462.198 168.104 460.566 170.408 456.806 172.216L457.91 173.88C463.142 171.352 464.662 167.672 464.662 163.16H457.59ZM466.918 161.624V176.36H469.046V161.624H466.918ZM472.021 162.744V164.424H476.821C476.485 166.488 474.661 168.2 471.381 169.096L472.261 170.776C476.645 169.512 479.109 166.744 479.109 162.744H472.021ZM475.685 171.128H473.573V176.12H483.589V174.44H475.685V171.128ZM483.077 165.752V161.64H480.965V172.184H483.077V167.48H485.045V165.752H483.077ZM488.739 164.696H491.619V171.128H488.739V164.696ZM486.659 172.792H493.699V163.032H486.659V172.792ZM499.891 167.192H497.747V161.656H495.635V176.376H497.747V168.936H499.891V167.192ZM503.602 164.712H508.37V163H501.49V172.872H502.754C505.314 172.872 507.33 172.792 509.554 172.392L509.346 170.648C507.442 170.968 505.698 171.08 503.602 171.112V164.712ZM514.61 167.08H512.466V161.64H510.354V176.408H512.466V168.824H514.61V167.08ZM530.026 161.624V167.272H528.826V161.864H526.858V171.4C524.682 170.264 523.946 167.816 523.946 165.24V164.84H526.154V163.128H519.482V164.84H521.898V165.24C521.898 168.072 521.194 170.68 519.002 171.96L520.266 173.56C521.642 172.744 522.506 171.352 522.986 169.656C523.514 171.128 524.362 172.312 525.674 173.016L526.858 171.432V175.704H528.826V169H530.026V176.36H532.026V161.624H530.026ZM535.337 170.344C537.897 169.88 539.753 168.6 540.665 166.84C541.593 168.568 543.465 169.8 546.057 170.264L546.857 168.6C543.689 168.136 541.977 166.36 541.785 164.44H546.201V162.76H535.097V164.44H539.513C539.321 166.36 537.609 168.2 534.521 168.68L535.337 170.344ZM541.721 172.952V169.704H539.609V172.952H533.993V174.664H547.337V172.952H541.721ZM556.711 165.192V166.904H558.919V170.408H561.031V161.64H558.919V165.192H556.711ZM557.591 168.36C555.351 167.624 554.327 165.896 554.263 164.216H557.127V162.52H549.207V164.216H552.103C552.039 166.056 550.967 167.928 548.631 168.744L549.703 170.408C551.415 169.832 552.583 168.632 553.223 167.144C553.863 168.44 554.967 169.48 556.567 170.008L557.591 168.36ZM556.055 174.792C554.119 174.792 553.111 174.392 553.111 173.56C553.111 172.728 554.119 172.328 556.055 172.328C557.975 172.328 558.983 172.728 558.983 173.56C558.983 174.392 557.975 174.792 556.055 174.792ZM556.055 170.728C552.919 170.728 550.999 171.768 550.999 173.56C550.999 175.352 552.919 176.392 556.055 176.392C559.175 176.392 561.095 175.352 561.095 173.56C561.095 171.768 559.175 170.728 556.055 170.728Z" fill="#A6062D"/>
<path d="M367.064 303.224C369.256 303.224 371.208 301.704 371.208 299.064C371.208 296.488 369.544 295.304 367.56 295.304C367.016 295.304 366.6 295.416 366.136 295.64L366.36 293.128H370.664V291.16H364.328L364.008 296.904L365.08 297.608C365.768 297.16 366.152 296.984 366.856 296.984C368.056 296.984 368.856 297.752 368.856 299.128C368.856 300.52 367.992 301.304 366.76 301.304C365.656 301.304 364.824 300.76 364.152 300.104L363.064 301.608C363.944 302.488 365.192 303.224 367.064 303.224ZM384.998 289.64H382.87V297.016H384.998V289.64ZM375.014 293.432C375.014 292.392 375.83 291.768 376.918 291.768C378.006 291.768 378.79 292.392 378.79 293.432C378.79 294.488 378.006 295.096 376.918 295.096C375.83 295.096 375.014 294.488 375.014 293.432ZM380.838 293.432C380.838 291.48 379.158 290.072 376.918 290.072C374.662 290.072 372.966 291.48 372.966 293.432C372.966 295.4 374.662 296.808 376.918 296.808C379.158 296.808 380.838 295.4 380.838 293.432ZM377.286 302.568V301.64H384.998V297.624H375.174V299.24H382.902V300.136H375.19V304.216H385.366V302.568H377.286ZM459.118 303.224C461.518 303.224 463.102 301.848 463.102 300.056C463.102 298.44 462.206 297.48 461.118 296.888V296.808C461.902 296.248 462.638 295.272 462.638 294.104C462.638 292.216 461.294 290.952 459.198 290.952C457.134 290.952 455.63 292.168 455.63 294.072C455.63 295.336 456.286 296.232 457.198 296.888V296.968C456.094 297.56 455.166 298.536 455.166 300.056C455.166 301.912 456.862 303.224 459.118 303.224ZM459.87 296.232C458.622 295.736 457.71 295.192 457.71 294.072C457.71 293.128 458.35 292.6 459.15 292.6C460.142 292.6 460.718 293.288 460.718 294.248C460.718 294.952 460.446 295.624 459.87 296.232ZM459.182 301.56C458.078 301.56 457.198 300.872 457.198 299.8C457.198 298.92 457.646 298.12 458.286 297.608C459.822 298.232 460.91 298.744 460.91 299.976C460.91 301 460.174 301.56 459.182 301.56ZM465.932 296.936C468.508 296.584 470.316 295.48 471.196 293.976C472.076 295.48 473.884 296.584 476.46 296.936L477.212 295.288C474.22 294.92 472.668 293.48 472.46 292.072H476.636V290.392H465.708V292.072H469.948C469.74 293.48 468.172 294.92 465.164 295.288L465.932 296.936ZM477.852 297.784H464.54V299.464H470.092V304.408H472.204V299.464H477.852V297.784ZM544.944 298.136L546.784 295.192C547.12 294.552 547.44 293.896 547.728 293.272H547.792C547.76 293.96 547.696 295.032 547.696 295.72V298.136H544.944ZM551.296 298.136H549.888V291.16H547.072L542.656 298.328V299.928H547.696V303H549.888V299.928H551.296V298.136ZM556.462 303.224C558.862 303.224 560.462 301.112 560.462 297.032C560.462 292.952 558.862 290.936 556.462 290.936C554.046 290.936 552.446 292.936 552.446 297.032C552.446 301.112 554.046 303.224 556.462 303.224ZM556.462 301.384C555.438 301.384 554.67 300.36 554.67 297.032C554.67 293.72 555.438 292.76 556.462 292.76C557.47 292.76 558.238 293.72 558.238 297.032C558.238 300.36 557.47 301.384 556.462 301.384ZM574.092 289.64H571.964V297.016H574.092V289.64ZM564.108 293.432C564.108 292.392 564.924 291.768 566.012 291.768C567.1 291.768 567.884 292.392 567.884 293.432C567.884 294.488 567.1 295.096 566.012 295.096C564.924 295.096 564.108 294.488 564.108 293.432ZM569.932 293.432C569.932 291.48 568.252 290.072 566.012 290.072C563.756 290.072 562.06 291.48 562.06 293.432C562.06 295.4 563.756 296.808 566.012 296.808C568.252 296.808 569.932 295.4 569.932 293.432ZM566.38 302.568V301.64H574.092V297.624H564.268V299.24H571.996V300.136H564.284V304.216H574.46V302.568H566.38Z" fill="#00448D"/>
<path d="M742 68C747.523 68 752 63.5228 752 58C752 52.4772 747.523 48 742 48C736.477 48 732 52.4772 732 58C732 63.5228 736.477 68 742 68Z" stroke="black" stroke-width="2" stroke-linecap="round" stroke-linejoin="round"/>
<path d="M745 55L739 61" stroke="black" stroke-width="2" stroke-linecap="round" stroke-linejoin="round"/>
<path d="M739 55L745 61" stroke="black" stroke-width="2" stroke-linecap="round" stroke-linejoin="round"/>
</svg>
