<svg width="20" height="20" viewBox="0 0 20 20" fill="none" xmlns="http://www.w3.org/2000/svg">
<rect width="20" height="20" rx="10" fill="#5552B9"/>
<path d="M8.72263 11.968H10.7706C10.5306 9.712 13.3146 8.944 13.3146 6.672C13.3146 4.624 11.9066 3.632 9.98663 3.632C8.59463 3.632 7.45863 4.288 6.62663 5.232L7.92263 6.416C8.43463 5.888 8.99463 5.52 9.69863 5.52C10.5306 5.52 11.0586 6.032 11.0586 6.832C11.0586 8.352 8.33863 9.392 8.72263 11.968ZM9.74663 16.224C10.5946 16.224 11.2186 15.552 11.2186 14.688C11.2186 13.808 10.5946 13.152 9.74663 13.152C8.91463 13.152 8.29063 13.808 8.29063 14.688C8.29063 15.552 8.91463 16.224 9.74663 16.224Z" fill="white"/>
</svg>
